# xmcd
#
# Track frame offsets:
#	150
#	13237
#	29800
#	48825
#	64190
#	79147
#	94730
#	117440
#	130577
#	144530
#
# Disc length: 2115 seconds
#
# Revision: 0
# Processed by: cddbd v1.5PL3 Copyright (c) Steve Scherf et al.
# Submitted via: dBpowerAMP V4.0
#
DISCID=8908410a
DTITLE=Ken Holloway - Spending Time With You
DYEAR=2002
DGENRE=Country
TTITLE0=Spending Time With You
TTITLE1=I'm Taking It Back
TTITLE2=Keep Holding On
TTITLE3=All I Have To Offer You
TTITLE4=Home
TTITLE5=Sometimes You Gotta Run
TTITLE6=Send Your Glory Down
TTITLE7=A Little Soul
TTITLE8=That's What I'm Gonna Do
TTITLE9=Everything's Gonna Be Alright
EXTD=
EXTT0=
EXTT1=
EXTT2=
EXTT3=
EXTT4=
EXTT5=
EXTT6=
EXTT7=
EXTT8=
EXTT9=
PLAYORDER=
